<svg xmlns="http://www.w3.org/2000/svg" width="1999.636" height="656.032" viewBox="0 0 6340 2080">
    <path id="Color_Fill_5" data-name="Color Fill 5" class="cls-1"
          d="M186,179l338,1q-0.5,51.995-1,104l-108,1-3,2q0.5,135.486,1,271c0,23.782,5.121,95.107-2,111l-118-1-1-3q0.5-138.985,1-278c0-24.982,6.315-84.477-2-103l-107-1q-0.5-51-1-102Zm409,0c24-.206,100.228-5.148,116,2V324c0,11.164-3.941,42,3,47l146,1c11.232,0,39.685,3.746,45-3q0.5-94.491,1-189c16.107-4.365,105.15-4.871,118,1V527c0,28.948,6.58,122.844-2,142-24.162.206-101.123,5.194-117-2q0.5-68.493,1-137c0-16.728,3.574-44.571-3-56H766c-17.136,0-41.361-2.793-55,2V619c0,12.728,3.479,43.648-2,49-11.526,4.651-107.246,3.475-117-1V181Zm500,0h226c23.37,0,77.7-5.752,95,2V282c-0.67.667-1.33,1.333-2,2H1272c-17.76,0-47.21-4.2-61,2-0.23,13.585-2.15,83.342,3,87l186,2q-0.495,50-1,100c-0.67,1-1.33,2-2,3H1214l-3,2q0.495,42,1,84c0.67,1,1.33,2,2,3h208l3,2c0.23,15.4,3.56,92.707-2,99l-247,1c-23.59,0-64.99,6.556-84-2V181ZM182,790l5992,1q-0.495,88.991-1,178H282c-16.195,0-94.068,3.988-101-2q-0.5-64.993-1-130C180,821.48,177.71,799.768,182,790Zm1758,276c10.97-.27,27.33-1.6,35,2q199.98,422.46,400,845l-1,1H2161q-20.505-42-41-84H1795q-20.505,42-41,84-106.995-.495-214-1v-3c13.18-13.35,18.31-38.57,27-56l73-155Q1789.985,1382.53,1940,1066Zm2121,0c226.29-3.72,363.91,107.65,429,266,39.31,95.64,45.19,238.1,4,338-61.32,148.7-174.17,237.83-354,269-70.82,12.28-146.96-4.77-199-19-141.94-38.82-240.27-143.45-281-284-15.25-52.63-28.25-129.95-16-198,5.48-30.46,11.08-61.01,21-88,46.32-126.05,133.78-208.59,257-258,25.42-10.19,56.24-15.18,84-21Q4033.5,1068.495,4061,1066Zm582,27q191.475,1.005,383,2c67.2,10.98,118.87,29.84,162,64,68.27,54.06,113.9,183.66,71,301-28.47,77.86-90.55,128.21-177,148-0.33.67-.67,1.33-1,2q109.485,150.99,219,302c-0.33.67-.67,1.33-1,2H5119c-20.97,0-58.24,4.97-72-4q-76.485-111.99-153-224c-9.06-13.41-42.01-71.96-54-76v2q-0.495,150.99-1,302-99.495-.495-199-1,0.495-409.455,1-819C4641.67,1093.67,4642.33,1093.33,4643,1093Zm745,0q90.99,1.005,182,2c13.41,10.36,49.36,101.11,59,123l151,317c1.67-.33,3.33-0.67,5-1,2.01-14.08,10.11-22.92,15-34q22.5-47.49,45-95,73.5-155.49,147-311h128c16.49,0,43.34-3.7,56,2v764c0,13.36,3.83,47.26-2,53q-24.99.495-50,1H6017c-12.44,0-30.96,2.1-40-2q0.495-180.48,1-361-3.495,3-7,6c-5.42,32.48-36.79,83.53-51,113q-61.5,135.48-123,271c-12.98.4-27.66,0.99-35-4l-31-68q-50.49-113.49-101-227c-12.05-30.81-32.28-58.16-41-92-0.67-.33-1.33-0.67-2-1-1,.67-2,1.33-3,2q-0.495,181.485-1,363H5444c-17.51,0-46.43,4.1-60-2q0.495-301.965,1-604V1151C5385,1133.79,5381.06,1101.87,5388,1093Zm-5203,1H451c50.375,0,107.167-4.51,148,7,86.992,24.51,143.381,75.8,175,156,16.081,40.79,25.6,105.23,13,158-9.663,40.47-24.474,74.38-46,103-45.159,60.04-107.313,85.94-199,101H418c-11.717,0-28.589-1.76-37,2q0.5,145.485,1,291c-0.667.67-1.333,1.33-2,2q-98.49-.495-197-1l-1-3q0.5-308.475,1-617V1154C183,1135.16,179.385,1106.57,185,1094Zm685,0h138c17.51,0,46.43-4.1,60,2v590c0,16.77-3.78,44.09,2,57h255c23.02,0,86.85-5.29,100,2v124c0,10.92,3.73,37.44-2,44q-207.975.495-416,1c-28.59,0-121.089,6.48-140-2v-1q0.5-295.47,1-591V1162C868,1142.44,863.1,1109.41,870,1094Zm1443,0q284.97,0.495,570,1v174q-72.99.495-146,1c-12.47,0-30.92-2.06-40,2v639c-0.67,1-1.33,2-2,3H2555c-17.51,0-46.43,4.1-60-2q0.495-222.48,1-445V1326c0-19.14,2.91-42.04-2-56q-89.985-.495-180-1c-1-.67-2-1.33-3-2Q2312.005,1180.51,2313,1094Zm686,0h493c9.34,0,28.86-2.72,33,3q0.495,22.005,1,44c0,26.5,5.91,111.59-2,129H3293c-23.58,0-78.55-5.82-96,2q0.495,85.995,1,172c0.67,1,1.33,2,2,3q149.49,0.495,299,1v172q-112.485.495-225,1c-15.41,0-71.77-2.74-76,3q-1.005,144.99-2,290-99.495-.495-199-1c-0.33-1-.67-2-1-3,4.56-17.27,2-42.55,2-63V1296Q2998.5,1195.005,2999,1094Zm1067,161c-22.29,8.92-52.33,7.17-74,15-66.93,24.2-116.56,81.18-138,151-47.71,155.36,40.55,285.68,153,320,29.11,8.89,78.88,17.44,118,9,82.34-17.77,147.62-64.99,175-137C4373.04,1420.92,4257.66,1254.15,4066,1255Zm-3679,8c-9.38,6.55-6,27.59-6,43,0,28.06-6.367,121.8,2,140q33,0.495,66,1c26.089,0,59.751,3.65,81-3,38.457-12.03,71.443-64.97,56-120C562.83,1241.43,480.721,1270.71,387,1263Zm4456,0-3,3v135c0,11.62-4.15,40.95,2,48q42,0.495,84,1c80.86,0,124.59,5.78,145-57,3.91-12.04,11.74-29.55,8-48C5056.22,1232.52,4961.49,1272.91,4843,1263ZM1953,1478q-47.49,102.495-95,205c6.32,7.73,33.71,4,47,4q72.495-.495,145-1c-0.94-18.05-15.81-37.59-23-52-16.56-33.19-30.9-68.27-46-101C1975.96,1522.08,1962.74,1480.34,1953,1478Z"/>
</svg>
